<?xml version="1.0" encoding="UTF-8" standalone="no"?>
<!-- Created with Sodipodi ("http://www.sodipodi.com/") -->

<svg
   xmlns:dc="http://purl.org/dc/elements/1.1/"
   xmlns:cc="http://creativecommons.org/ns#"
   xmlns:rdf="http://www.w3.org/1999/02/22-rdf-syntax-ns#"
   xmlns:svg="http://www.w3.org/2000/svg"
   xmlns="http://www.w3.org/2000/svg"
   xmlns:sodipodi="http://sodipodi.sourceforge.net/DTD/sodipodi-0.dtd"
   xmlns:inkscape="http://www.inkscape.org/namespaces/inkscape"
   width="57.531921"
   height="56.564999"
   viewBox="0 0 245.46953 241.34399"
   overflow="visible"
   enable-background="new 0 0 256 256"
   xml:space="preserve"
   id="svg153"
   sodipodi:version="0.32pre"
   sodipodi:docname="fse.svg"
   version="1.1"
   inkscape:version="0.92.3 (2405546, 2018-03-11)"
   style="overflow:visible"
   inkscape:export-filename="/home/physikerwelt/Documents/favicon.png"
   inkscape:export-xdpi="313.60001"
   inkscape:export-ydpi="313.60001"><metadata
     id="metadata27"><rdf:RDF><cc:Work
         rdf:about=""><dc:format>image/svg+xml</dc:format><dc:type
           rdf:resource="http://purl.org/dc/dcmitype/StillImage" /><dc:title /></cc:Work></rdf:RDF></metadata><defs
     id="defs192"><inkscape:perspective
       sodipodi:type="inkscape:persp3d"
       inkscape:vp_x="0 : 30 : 1"
       inkscape:vp_y="0 : 1000 : 0"
       inkscape:vp_z="60 : 30 : 1"
       inkscape:persp3d-origin="30 : 20 : 1"
       id="perspective29" /><linearGradient
       id="XMLID_1_"
       gradientUnits="userSpaceOnUse"
       x1="86.394997"
       y1="86.276398"
       x2="312.32861"
       y2="312.2099"><stop
         offset="0"
         style="stop-color: rgb(255, 255, 255);"
         id="stop161" /><stop
         offset="1"
         style="stop-color: rgb(153, 204, 255);"
         id="stop162" /></linearGradient><linearGradient
       id="XMLID_2_"
       gradientUnits="userSpaceOnUse"
       x1="211.957"
       y1="220.91991"
       x2="222.25333"
       y2="197.147"
       gradientTransform="matrix(0.9999,0.012,-0.012,0.9999,2.579,-2.6)"><stop
         offset="0"
         style="stop-color:#0066cc;stop-opacity:1;"
         id="stop173" /><stop
         offset="1"
         style="stop-color:#82abff;stop-opacity:1;"
         id="stop174" /></linearGradient><linearGradient
       id="XMLID_3_"
       gradientUnits="userSpaceOnUse"
       x1="98.557602"
       y1="135.627"
       x2="189.6787"
       y2="135.627"><stop
         offset="0"
         style="stop-color: rgb(255, 255, 255);"
         id="stop184" /><stop
         offset="1"
         style="stop-color:#b7dff2;stop-opacity:1;"
         id="stop185" /></linearGradient></defs><sodipodi:namedview
     id="base"
     showgrid="false"
     inkscape:snap-global="false"
     inkscape:zoom="3.6564792"
     inkscape:cx="-73.209895"
     inkscape:cy="-18.413631"
     inkscape:window-width="2493"
     inkscape:window-height="1385"
     inkscape:window-x="67"
     inkscape:window-y="1107"
     inkscape:window-maximized="1"
     inkscape:current-layer="svg153" /><g
     id="Layer_2"
     style="stroke:#000000"
     transform="translate(-9.0761843,-6.817493)"><path
       d="M 256,256 H 0 V 0 h 256 v 256 z"
       id="path155"
       style="fill:none;stroke:none" /></g><g
     id="g2835"
     style="opacity:1"
     transform="translate(-7.1063625e-6,0.58343932)"><ellipse
       transform="matrix(4.7407408,0,0,4.8075118,75.864063,-45.206648)"
       id="path3604"
       style="fill:#ffffff;fill-opacity:1"
       cx="2.272269"
       cy="26.737848"
       rx="14.358807"
       ry="13.730307" /><g
       transform="matrix(1.44804,0,0,1.39354,-121.89318,-105.81879)"
       id="g240"><path
         style="fill:#323232;fill-opacity:1;stroke:none"
         id="path170"
         d="m 117.30254,119.80147 90.54355,90.54356 8.62355,-8.61976 -90.54355,-90.54355 -8.62355,8.61975 z"
         inkscape:connector-curvature="0" /><path
         style="fill:#323232;fill-opacity:1;stroke:none"
         id="path171"
         d="m 195.30053,195.65383 c -2.77038,2.89496 -3.33609,7.00285 -1.26159,9.17667 l 40.37844,42.33455 c 2.07616,2.17294 6.00228,1.59074 8.77339,-1.30235 l 6.27336,-6.55114 c 2.77098,-2.89557 3.33623,-7.00387 1.26191,-9.17869 l -40.37878,-42.33256 c -2.07464,-2.17451 -6.00214,-1.59174 -8.77335,1.30237 l -6.27338,6.55115 z"
         inkscape:connector-curvature="0" /><path
         style="fill:#323232;fill-opacity:1;stroke:none"
         id="path179"
         d="m 86.451,135.626 c 0,31.849 25.818,57.667 57.666,57.667 31.85,0 57.668,-25.818 57.668,-57.667 0,-31.848 -25.818,-57.667 -57.668,-57.667 -31.847,0 -57.666,25.819 -57.666,57.667 z"
         inkscape:connector-curvature="0" /><path
         style="fill:#e5e5e5;fill-opacity:1;stroke:none"
         id="path182"
         d="m 98.574316,136.33728 c 0,25.11455 20.431004,45.5437 45.543694,45.5437 25.11361,0 45.54463,-20.42915 45.54463,-45.5437 0,-25.11268 -20.43102,-45.543726 -45.54463,-45.543726 -25.11269,0 -45.543694,20.431046 -45.543694,45.543726 z"
         inkscape:connector-curvature="0" /><path
         style="font-style:normal;font-weight:normal;font-size:2050.27807617px;font-family:'Times New Roman';fill:#000000;fill-opacity:1;stroke:none;stroke-width:1px;stroke-linecap:butt;stroke-linejoin:miter;stroke-opacity:1"
         d="m 175.79627,105.35734 0,9.50759 -14.53922,0 -1.25337,19.79642 c -0.25076,3.42974 -0.37608,6.40356 -0.37597,8.92146 0,6.03447 0.67878,9.7138 2.03668,11.03783 1.35779,1.32418 2.9977,1.9862 4.91949,1.9862 4.01087,0 6.39227,-2.62648 7.14435,-7.87954 l 2.25608,0 c -1.37881,12.06894 -6.0163,18.10342 -13.91258,18.10342 -3.67659,0 -6.63247,-1.17212 -8.86765,-3.51645 -2.23529,-2.34435 -3.35288,-5.81744 -3.35277,-10.4193 0,-3.03892 0.43859,-9.4641 1.31598,-19.27554 l 1.69206,-18.7545 -13.28584,0 c -0.87739,15.80243 -1.93226,27.35047 -3.16472,34.6439 -1.23258,7.29342 -2.59035,12.00373 -4.07359,14.13104 -1.48311,2.12719 -3.49899,3.19085 -6.04754,3.19085 -1.9218,0 -3.54081,-0.58611 -4.85678,-1.75823 -1.31609,-1.17224 -1.97419,-2.71331 -1.97407,-4.62359 -1.2e-4,-1.82332 1.12792,-4.31961 3.38413,-7.48871 3.30048,-4.60185 5.76552,-9.38819 7.39487,-14.359 1.62945,-4.97082 2.86192,-12.88292 3.69749,-23.73626 l -4.26152,0 c -3.42593,0 -6.04754,0.79233 -7.86492,2.37688 -1.81738,1.58457 -3.54081,3.853 -5.17026,6.80507 l -2.25609,0 c 1.21166,-4.64521 2.7784,-8.46566 4.70021,-11.46121 1.9218,-2.99543 3.896,-4.94907 5.92222,-5.86079 2.02634,-0.91161 5.62974,-1.36741 10.81046,-1.36754 z"
         id="text2175"
         inkscape:connector-curvature="0"
         sodipodi:nodetypes="ccccccsccscccccssssscscccccsccc" /></g></g></svg>